<svg xmlns="http://www.w3.org/2000/svg" viewBox="0 0 60 60"><linearGradient id="a" x1="8.5" x2="54.025" y1="24.641" y2="24.641" gradientUnits="userSpaceOnUse"><stop offset="0" stop-color="#000092"/><stop offset="1" stop-color="#FF00F3"/></linearGradient><path fill="url(#a)" d="M43.73 25.659a.5.5 0 0 0 .5-.5v-1.036a.5.5 0 0 0-1 0v1.036a.5.5 0 0 0 .5.5z"/><linearGradient id="b" x1="8.5" x2="54.025" y1="21.534" y2="21.534" gradientUnits="userSpaceOnUse"><stop offset="0" stop-color="#000092"/><stop offset="1" stop-color="#FF00F3"/></linearGradient><path fill="url(#b)" d="M43.73 22.552a.5.5 0 0 0 .5-.5v-1.035a.5.5 0 0 0-1 0v1.035a.5.5 0 0 0 .5.5z"/><linearGradient id="c" x1="8.5" x2="54.025" y1="18.427" y2="18.427" gradientUnits="userSpaceOnUse"><stop offset="0" stop-color="#000092"/><stop offset="1" stop-color="#FF00F3"/></linearGradient><path fill="url(#c)" d="M43.73 19.444a.5.5 0 0 0 .5-.5v-1.035a.5.5 0 0 0-1 0v1.035a.5.5 0 0 0 .5.5z"/><linearGradient id="d" x1="8.5" x2="54.025" y1="18.427" y2="18.427" gradientUnits="userSpaceOnUse"><stop offset="0" stop-color="#000092"/><stop offset="1" stop-color="#FF00F3"/></linearGradient><path fill="url(#d)" d="M17.358 17.909a.5.5 0 0 0-1 0v1.035a.5.5 0 0 0 1 0v-1.035z"/><linearGradient id="e" x1="8.5" x2="54.025" y1="24.642" y2="24.642" gradientUnits="userSpaceOnUse"><stop offset="0" stop-color="#000092"/><stop offset="1" stop-color="#FF00F3"/></linearGradient><path fill="url(#e)" d="M16.858 23.624a.5.5 0 0 0-.5.5v1.035a.5.5 0 0 0 1 0v-1.035a.5.5 0 0 0-.5-.5z"/><linearGradient id="f" x1="8.5" x2="54.025" y1="21.534" y2="21.534" gradientUnits="userSpaceOnUse"><stop offset="0" stop-color="#000092"/><stop offset="1" stop-color="#FF00F3"/></linearGradient><path fill="url(#f)" d="M17.358 21.017a.5.5 0 0 0-1 0v1.035a.5.5 0 0 0 1 0v-1.035z"/><linearGradient id="g" x1="8.5" x2="54.025" y1="39.987" y2="39.987" gradientUnits="userSpaceOnUse"><stop offset="0" stop-color="#000092"/><stop offset="1" stop-color="#FF00F3"/></linearGradient><path fill="url(#g)" d="M34.294 39.987a.497.497 0 0 0-.227-.418l-5-3.272a.5.5 0 1 0-.774.418v6.545a.498.498 0 0 0 .5.5.49.49 0 0 0 .273-.082l5-3.272a.499.499 0 0 0 .228-.419zm-5 2.348V37.64l3.587 2.348-3.587 2.347z"/><linearGradient id="h" x1="8.5" x2="54.025" y1="19.987" y2="19.987" gradientUnits="userSpaceOnUse"><stop offset="0" stop-color="#000092"/><stop offset="1" stop-color="#FF00F3"/></linearGradient><path fill="url(#h)" d="M24.794 24.487h8c.827 0 1.5-.673 1.5-1.5v-.793l1.146 1.146a.5.5 0 0 0 .354.146h1c.827 0 1.5-.673 1.5-1.5v-4c0-.827-.673-1.5-1.5-1.5h-1a.504.504 0 0 0-.354.146l-1.146 1.146v-.793c0-.827-.673-1.5-1.5-1.5h-8a2.502 2.502 0 0 0-2.5 2.5v4a2.503 2.503 0 0 0 2.5 2.502zm11.207-7h.793c.275 0 .5.225.5.5v4c0 .275-.225.5-.5.5h-.793l-1.707-1.707v-1.586l1.707-1.707zm-12.707.5c0-.827.673-1.5 1.5-1.5h8c.275 0 .5.225.5.5v6c0 .275-.225.5-.5.5h-8c-.827 0-1.5-.673-1.5-1.5v-4z"/><linearGradient id="i" x1="8.5" x2="54.025" y1="17.987" y2="17.987" gradientUnits="userSpaceOnUse"><stop offset="0" stop-color="#000092"/><stop offset="1" stop-color="#FF00F3"/></linearGradient><path fill="url(#i)" d="M24.794 18.487h2a.5.5 0 0 0 0-1h-2a.5.5 0 0 0 0 1z"/><linearGradient id="j" x1="8.5" x2="54.025" y1="31.608" y2="31.608" gradientUnits="userSpaceOnUse"><stop offset="0" stop-color="#000092"/><stop offset="1" stop-color="#FF00F3"/></linearGradient><path fill="url(#j)" d="M43.828 11.739c-.017-.003-.033.002-.049 0-.017-.002-.031-.01-.048-.01s-.032.008-.048.01a.48.48 0 0 0-.264.108.493.493 0 0 0-.16.239c-.005.016-.016.029-.019.046-.003.017.002.032 0 .049s-.01.032-.01.049v.5a.5.5 0 0 0 .5.5.492.492 0 0 0 .477-.386c.368.078.732.158 1.086.242v1.972c-.348-.08-.704-.157-1.063-.232v-.023a.5.5 0 0 0-1 0v1.035a.5.5 0 0 0 .998.01c1.462.311 2.824.668 4.065 1.066v9.141a43.21 43.21 0 0 1-4.086 1.066.493.493 0 0 0-.478-.389.5.5 0 0 0-.5.5v.087c-3.837.74-8.265 1.169-12.937 1.169-4.671 0-9.099-.43-12.936-1.169v-.089a.5.5 0 0 0-.5-.5.493.493 0 0 0-.478.39 43.313 43.313 0 0 1-4.087-1.066v-9.141a41.977 41.977 0 0 1 4.066-1.067.499.499 0 0 0 .998-.009v-1.036a.5.5 0 0 0-1 0v.023c-.36.075-.716.152-1.064.232v-1.972c.355-.084.719-.164 1.087-.242.053.22.241.386.477.386a.5.5 0 0 0 .5-.5v-.5c0-.017-.008-.032-.01-.049-.002-.016.003-.032 0-.049s-.014-.029-.019-.045a.475.475 0 0 0-.236-.29.483.483 0 0 0-.186-.056c-.017-.002-.031-.01-.048-.01s-.032.008-.048.01c-.017.002-.033-.003-.049 0-8.433 1.685-13.467 4.768-13.467 8.248v22c0 5.327 11.859 9.5 27 9.5s27-4.173 27-9.5v-22c.002-3.48-5.032-6.563-13.464-8.248zM6.294 16.813c.558-.435 1.234-.855 2-1.258v1.868c-.746.367-1.411.753-2 1.155v-1.765zm5-.621c-.708.244-1.376.501-2 .771v-1.898a26.3 26.3 0 0 1 2-.807v1.934zm-3 2.353v5.899c-1.72-.89-2.949-1.885-3.559-2.942.608-1.048 1.833-2.052 3.559-2.957zm2.46 8.056c.434.159.879.314 1.344.461l.127.039.07.021v1.932a30.85 30.85 0 0 1-2-.706v-1.917l.187.069c.089.034.18.068.272.101zm3.115.975c.463.123.939.241 1.425.354v1.947a42.91 42.91 0 0 1-2-.521v-1.938l.314.086c.087.024.172.049.261.072zm3.595.806c.274.051.551.1.83.148v1.961c-.685-.12-1.351-.25-2-.389v-1.951c.351.074.707.145 1.069.213l.101.018zm3.767.574l.063.009v1.975a62.974 62.974 0 0 1-2-.282v-1.965l.167.024c.579.087 1.169.166 1.77.239zm2.326.244c.243.021.49.039.737.058v1.988a71.146 71.146 0 0 1-2-.19v-1.978c.395.042.794.081 1.198.117l.065.005zm2.291.163c.478.027.959.05 1.446.068v1.996a75.27 75.27 0 0 1-2-.105V29.33l.185.011.369.022zm-6.554 17.295V31.69c.653.1 1.32.191 2 .273V46.94a62.974 62.974 0 0 1-2-.282zm-9-2.309V29.431c2.247.866 4.955 1.579 8 2.098V46.49c-3.067-.537-5.791-1.268-8-2.141zM7.269 26.864v-.002c.011-.041.025-.081.025-.125v-1.708c.195.111.393.221.6.329.04.021.084.041.125.062.334.171.686.338 1.051.501.067.03.131.06.199.089l.026.012v1.902a17.081 17.081 0 0 1-2.026-1.06zm-2.975-4.257c.019.024.046.048.066.072.176.217.369.432.587.643.029.028.062.056.092.084.209.197.437.39.682.579.044.034.085.069.13.103.141.107.292.211.444.315v1.791c-1.283-.995-2-2.079-2-3.206v-.381zm5 6.415v14.902a17.425 17.425 0 0 1-2-1.045v-14.85c.607.347 1.274.679 2 .993zm-2 15.007c.607.347 1.274.679 2 .993v1.902a17.39 17.39 0 0 1-2.026-1.061c.011-.041.026-.082.026-.127v-1.707zm3 1.402c.631.243 1.3.473 2 .691v1.932a30.85 30.85 0 0 1-2-.706v-1.917zm3 .987c.643.181 1.309.352 2 .512v1.947a42.91 42.91 0 0 1-2-.521v-1.938zm3 .733a52.43 52.43 0 0 0 2 .378v1.961c-.685-.12-1.351-.25-2-.389v-1.95zm3 .539c.653.1 1.32.191 2 .273v1.976a62.974 62.974 0 0 1-2-.282V47.69zm3 .388c.655.069 1.323.128 2 .18v1.988a71.146 71.146 0 0 1-2-.19v-1.978zm3 .251c.658.042 1.324.077 2 .102v1.996a75.27 75.27 0 0 1-2-.105v-1.993zm-3-1.273V32.078c2.519.266 5.203.409 8 .409 3.171 0 6.195-.185 9-.524V46.94c-2.82.352-5.854.547-9 .547-2.777 0-5.467-.153-8-.431zm10.09-17.598l.394-.01c.172-.005.345-.01.516-.017v1.996c-.661.026-1.327.044-2 .053v-2c.366-.006.729-.013 1.09-.022zm2.725-.118c.398-.024.793-.051 1.185-.081v1.988c-.659.053-1.325.099-2 .135v-1.994l.446-.024.369-.024zm6.338-.674c.284-.044.568-.089.847-.137v1.961c-.652.114-1.318.221-2 .317v-1.973c.28-.038.559-.077.833-.118l.32-.05zm3.751-.715l.095-.021v1.947c-.646.153-1.313.296-2 .429v-1.955a52.944 52.944 0 0 0 1.905-.4zm1.782-.447c.45-.123.888-.25 1.314-.382v1.932c-.637.202-1.305.394-2 .575v-1.942l.425-.11.261-.073zm3.127-1.004c.41-.155.808-.314 1.187-.478v1.902c-.619.278-1.286.544-2 .796v-1.926c.184-.063.362-.128.54-.194.092-.032.183-.066.273-.1zm-.813-12.242a25.9 25.9 0 0 1 2 .806v1.897a28.108 28.108 0 0 0-2-.771v-1.932zm5 4.318a16.206 16.206 0 0 0-2-1.155v-1.867c.766.403 1.442.823 2 1.258v1.764zm1.559 2.926c-.61 1.057-1.839 2.052-3.559 2.942v-5.899c1.727.904 2.951 1.908 3.559 2.957zm-3.559 5.942v-1.886l.276-.137.125-.062c.349-.182.675-.37.988-.561.068-.042.136-.083.203-.126.14-.089.276-.179.408-.269v1.79c-.561.436-1.232.854-2 1.251zm-9 18.862V31.351c3.095-.586 5.807-1.379 8-2.329v14.902c-2.141.96-4.87 1.775-8 2.382zm-1-14.776v14.961c-.652.114-1.318.221-2 .317V31.835a61.133 61.133 0 0 0 2-.305zm-3-2.565v1.975c-.655.082-1.323.154-2 .218v-1.982a66.204 66.204 0 0 0 1.699-.177l.301-.034zm-6 19.465v1.996c-.661.026-1.327.044-2 .053v-2a81.536 81.536 0 0 0 2-.049zm1-.043a78.214 78.214 0 0 0 2-.128v1.988c-.659.053-1.325.099-2 .135v-1.995zm3-.211a69.374 69.374 0 0 0 2-.212v1.976c-.655.082-1.323.154-2 .218v-1.982zm3-.341a61.133 61.133 0 0 0 2-.305v1.958l.001.003a63.65 63.65 0 0 1-2.001.318v-1.974zm3-.484c.687-.13 1.352-.271 2-.421v1.947c-.646.153-1.313.296-2 .429v-1.955zm3-.665c.693-.177 1.36-.365 2-.564v1.932c-.637.202-1.305.394-2 .575v-1.943zm3-.891a28.18 28.18 0 0 0 2-.772v1.902c-.619.278-1.286.544-2 .796v-1.926zm3-1.237a16.248 16.248 0 0 0 2-1.155v1.791c-.561.435-1.232.853-2 1.25v-1.886zm2-2.364c-.561.435-1.232.853-2 1.25V28.558a16.248 16.248 0 0 0 2-1.155v14.791zm1-18.556c.088-.077.173-.154.255-.232.03-.028.063-.055.092-.084.218-.21.41-.425.587-.643.02-.024.047-.048.066-.072v.38c0 .787-.354 1.551-1 2.28v-1.629zm1-3.651c0 .118-.013.234-.028.351a7.637 7.637 0 0 0-.972-1.001v-1.593c.647.731 1 1.486 1 2.243zm-10-6.654c.7.183 1.362.381 2 .586v1.945a39.246 39.246 0 0 0-2-.566v-1.965zm3 3.918c.715.256 1.381.525 2 .806v6.867c-.619.278-1.286.544-2 .796v-8.469zm-19 14.236c-.673 0-1.338-.012-2-.029V29.46c.661.016 1.326.027 2 .027v2zm-19-5.767a26.044 26.044 0 0 1-2-.796v-6.866a26.222 26.222 0 0 1 2-.807v8.469zm3-10.422c-.697.177-1.36.368-2 .566v-1.945c.638-.205 1.3-.403 2-.586v1.965zm-9 2.447v1.593a7.634 7.634 0 0 0-.972 1 2.752 2.752 0 0 1-.028-.351c0-.757.353-1.512 1-2.242zm1 9.658v14.791c-1.283-.995-2-2.079-2-3.206V25.596c.496.633 1.168 1.238 2 1.807zm-2 14.584v-.391c.496.633 1.168 1.238 2 1.807v1.791c-1.283-.995-2-2.079-2-3.207zm24 8.471V48.46c.661.016 1.326.027 2 .027v2c-.673 0-1.338-.011-2-.029zm28-8.471c0 .787-.354 1.551-1 2.28v-1.63a7.527 7.527 0 0 0 1-1.042v.392zm0-6v3c0 .787-.354 1.551-1 2.28v-14.63a7.527 7.527 0 0 0 1-1.042v10.392z"/></svg>